# xmcd
#
# Track frame offsets: 
#        150
#        16510
#        51125
#        79751
#
# Disc length: 1200 seconds
#
# Revision: 2
# Processed by: cddbd v1.5.2PL0 Copyright (c) Steve Scherf et al.
# Submitted via: ExactAudioCopy v1.3
#
DISCID=1f04ae04
DTITLE=N.E.R.D - She Wants To Move
DYEAR=2004
DGENRE=Hip-Hop
TTITLE0=She Wants To Move
TTITLE1=She Wants To Move (DFA Remix)
TTITLE2=Rock Star (Jason Nevins Remix Edit)
TTITLE3=Data
EXTD=Re titled the last track I think it's very important to spread th
EXTD=e word about what EMI are trying to do 
EXTT0=
EXTT1=
EXTT2=
EXTT3=
PLAYORDER=
